<svg id="_x30_1_Parrot" enable-background="new 0 0 64 64" height="512" viewBox="0 0 64 64" width="512" xmlns="http://www.w3.org/2000/svg"><path d="m26 34c-1-7-5.45-11.75-12.81-11.99-2.19-.07-4.26.55-6 1.67.65-.97 3.02-3.85 8.81-4.68 7-1 14 3 16 10l.06.03c-.71 1.59-1.06 3.13-1.06 3.97 0 1.24.2 2.55.5 3.89l-.5.11s-1.73 1.38-3.15 3.95c-.92-.46-1.58-5.07-1.85-6.95z" fill="#ffeaa7"/><path d="m19 36c0 3.94-4 8-9 7-4.62-.92-8.21-5.27-7.99-10.2.17-3.87 2.22-7.22 5.18-9.12 1.74-1.12 3.81-1.74 6-1.67 7.36.24 11.81 4.99 12.81 11.99.27 1.88.93 6.49 1.85 6.95-.88 1.58-1.65 3.62-1.81 6.05h-.04c-6-1-7-8-7-11z" fill="#d3a06c"/><path d="m27.85 40.95c1.42-2.57 3.15-3.95 3.15-3.95l.5-.11c.38 1.7.94 3.44 1.5 5.11.76 2.29 5.03 2.83 7 2.96v.04c.92 1.81 2.39 3.4 4.04 3.86l-.04.14c1 6-5 9-5 9h4 2c.55 0 1.05.22 1.41.59.37.36.59.86.59 1.41 0 1.1-.9 2-2 2h-3-9.76c-1.49 0-2.46-1.56-1.79-2.89l.55-1.11s-5-3-5-10c0-.34.01-.67.04-1 .16-2.43.93-4.47 1.81-6.05z" fill="#cf9e76"/><path d="m54 58h6c.55 0 1.05.22 1.41.59.37.36.59.86.59 1.41 0 1.1-.9 2-2 2h-15c1.1 0 2-.9 2-2 0-.55-.22-1.05-.59-1.41-.36-.37-.86-.59-1.41-.59h-2c7.85-1.96 10.89-8.74 10.99-13.72.24-.08.48-.16.71-.26l1.26-.02s2.52 2.03 2.93 5c.98 7-4.89 9-4.89 9z" fill="#cf9e76"/><path d="m44 49 .04-.14c.31.09.64.14.96.14 2.02 0 3.91-1.84 5-4v-.04c.99-.06 2.57-.23 3.99-.68-.1 4.98-3.14 11.76-10.99 13.72h-4s6-3 5-9z" fill="#e6e9ed"/><path d="m32.06 29.03c.95-2.13 2.53-4.33 4.76-4.98.36.33.75.65 1.18.95h-1s0 12 1 14c.24.49.55.86.87 1.14.99.86 2.13.86 2.13.86s2 0 2 2-2 2-2 2-.39 0-1-.04c-1.97-.13-6.24-.67-7-2.96-.56-1.67-1.12-3.41-1.5-5.11-.3-1.34-.5-2.65-.5-3.89 0-.84.35-2.38 1.06-3.97z" fill="#cf9e76"/><path d="m57 42c-.31.94-1.21 1.58-2.3 2.02-.23.1-.47.18-.71.26-1.42.45-3 .62-3.99.68-.61.04-1 .04-1 .04s-2 0-2-2 2-2 2-2 1.14 0 2.13-.86c.32-.28.63-.65.87-1.14 1-2 1-14 1-14h-1c.43-.3.82-.62 1.18-.95 3.88 1.13 5.82 6.98 5.82 8.95 0 2.8-1 6-2 9z" fill="#cf9e76"/><path d="m52 39c-.24.49-.55.86-.87 1.14l-.13-.14c0-3.22-2.69-5-6-5s-6 1.78-6 5l-.13.14c-.32-.28-.63-.65-.87-1.14-1-2-1-14-1-14h1c1.7 1.16 4 2 7 2s5.3-.84 7-2h1s0 12-1 14z" fill="#e6e9ed"/><path d="m49 45s.39 0 1-.04v.04c-1.09 2.16-2.98 4-5 4-.32 0-.65-.05-.96-.14-1.65-.46-3.12-2.05-4.04-3.86v-.04c.61.04 1 .04 1 .04s2 0 2-2-2-2-2-2h8s-2 0-2 2 2 2 2 2z" fill="#fcd770"/><path d="m51 40 .13.14c-.99.86-2.13.86-2.13.86h-8s-1.14 0-2.13-.86l.13-.14c0-3.22 2.69-5 6-5s6 1.78 6 5z" fill="#fcd770"/><path d="m35 9c-.5-.83-1.71-4.97 0-6 1.51-.91 3.85-.08 4.73.7-1.54.68-2.82 1.85-3.66 3.3-.36.62-.63 1.29-.82 2z" fill="#d3a06c"/><path d="m55 3c1.71 1.03.5 5.17 0 6l-.24.05c-.18-.73-.47-1.42-.83-2.05-.84-1.45-2.12-2.62-3.66-3.3.88-.78 3.22-1.61 4.73-.7z" fill="#d3a06c"/><path d="m55 15c0-1 0-4 0-4 0-.67-.08-1.33-.24-1.95-.18-.73-.47-1.42-.83-2.05-3.01.03-7.93 2.03-7.93 6h-2c0-3.97-4.92-5.97-7.93-6-.36.62-.63 1.29-.82 2-.16.64-.25 1.31-.25 2v4s-1 2-1 4c0 1.06.84 3.24 2.82 5.05.36.33.75.65 1.18.95 1.7 1.16 4 2 7 2s5.3-.84 7-2c.43-.3.82-.62 1.18-.95 1.98-1.81 2.82-3.99 2.82-5.05 0-2-1-3-1-4z" fill="#dfb28b"/><path d="m50.27 3.7c1.54.68 2.82 1.85 3.66 3.3-3.01.03-7.93 2.03-7.93 6h-1c-.34 0-.67.09-.95.24l-.05-.24c0-3.97-4.92-5.97-7.93-6 .84-1.45 2.12-2.62 3.66-3.3 1-.45 2.11-.7 3.27-.7h4c1.16 0 2.27.25 3.27.7z" fill="#cf9e76"/><path d="m45 13c1.1 0 2 .9 2 2s-.9 2-2 2-2-.9-2-2c0-.76.43-1.42 1.05-1.76.28-.15.61-.24.95-.24z" fill="#fcd770"/><path d="m45 17c0 1.01.77 2.28 2.05 2.89l-.05.11v3h-4v-3l-.05-.11c1.28-.61 2.05-1.88 2.05-2.89z" fill="#e6e9ed"/><circle cx="50" cy="14" r="1"/><circle cx="40" cy="14" r="1"/><path d="m60 57h-2.688c1.599-1.531 3.134-4.089 2.568-8.139-.349-2.497-1.969-4.373-2.802-5.191.386-.386.696-.829.871-1.354 1.038-3.114 2.051-6.398 2.051-9.316 0-2.148-1.732-7.227-5.101-9.265 1.445-1.727 2.101-3.582 2.101-4.735 0-1.37-.407-2.353-.704-3.069-.159-.384-.296-.716-.296-.931v-4c0-.512-.053-1.01-.135-1.499.542-.92 2.188-5.835-.35-7.358-.993-.597-2.323-.704-3.743-.302-.534.151-1.139.399-1.656.727-.973-.361-2.019-.568-3.116-.568h-4c-1.097 0-2.143.207-3.116.568-.517-.327-1.121-.576-1.656-.727-1.421-.404-2.75-.295-3.743.302-2.538 1.524-.892 6.438-.35 7.358-.082.489-.135.987-.135 1.499v4c0 .215-.137.547-.296.931-.297.716-.704 1.699-.704 3.069 0 1.153.656 3.008 2.101 4.735-1.166.705-2.136 1.772-2.906 2.959-2.75-6.015-9.398-9.674-16.336-8.684-5.88.84-8.495 3.699-9.38 4.95-3.127 2.094-5.279 5.675-5.467 9.796-.244 5.348 3.535 10.174 8.792 11.224.584.117 1.166.175 1.74.175 1.946 0 3.803-.664 5.357-1.938.648-.531 1.199-1.149 1.659-1.816.876 3.361 2.864 6.429 6.449 7.394-.001.07-.009.135-.009.205 0 5.847 3.214 9.104 4.726 10.313l-.173.345c-.468.937-.419 2.028.131 2.919s1.505 1.423 2.552 1.423h9.764 3 15c1.654 0 3-1.346 3-3s-1.346-3-3-3zm-2-24c0 2.618-.963 5.726-1.949 8.684-.582 1.745-5.002 2.314-7.04 2.316-.461-.012-1.011-.194-1.011-1s.55-.988 1-1c.107 0 2.632-.029 3.895-2.553.981-1.964 1.094-11.059 1.104-13.93 2.594 1.668 4.001 6.028 4.001 7.483zm-15.142 24h-.803c1.653-1.598 3.15-3.983 3.041-7.01 2.424-.053 4.39-2.044 5.534-4.068.657-.057 1.445-.159 2.262-.329-.521 3.975-3.039 9.608-10.034 11.407zm8.536-19.602c-1.049-2.081-3.388-3.398-6.394-3.398s-5.345 1.317-6.394 3.398c-.376-2.332-.568-7.288-.601-11.208 1.792 1.07 4.094 1.81 6.995 1.81s5.203-.74 6.994-1.811c-.033 3.921-.224 8.877-.6 11.209zm-6.394-1.398c2.228 0 4.808.983 4.983 3.709-.509.265-.957.29-.983.291h-8c-.008 0-.463-.015-.983-.286.172-2.73 2.754-3.714 4.983-3.714zm-1.162 6h2.324c-.094.299-.162.621-.162 1 0 1.786 1.179 2.638 2.269 2.9-.976 1.294-2.188 2.1-3.269 2.1s-2.293-.806-3.269-2.1c1.09-.262 2.269-1.114 2.269-2.9 0-.379-.068-.701-.162-1zm10.647-38.143c.479.287.467 1.475.273 2.602-.62-1.056-1.449-1.972-2.43-2.697.728-.201 1.566-.26 2.157.095zm-7.485.143c2.004 0 3.809.851 5.087 2.206-3.062.612-6.403 2.615-6.988 5.804-.034-.001-.065-.01-.099-.01s-.065.009-.099.01c-.585-3.189-3.926-5.193-6.988-5.804 1.278-1.355 3.083-2.206 5.087-2.206zm-3 16.443c.379-.259.713-.574 1-.919.287.345.621.659 1 .919v1.557h-2zm1-4.443c-.551 0-1-.448-1-1s.449-1 1-1 1 .448 1 1-.449 1-1 1zm-9.485-12.143c.591-.355 1.431-.297 2.158-.095-.982.725-1.81 1.641-2.431 2.697-.194-1.126-.206-2.314.273-2.602zm.036 12.839c.231-.556.449-1.083.449-1.696v-4c0-1.059.243-2.06.666-2.961 2.504.248 6.148 1.837 6.316 4.756-.599.549-.982 1.33-.982 2.205 0 1.22.734 2.267 1.781 2.736-.234.471-.645.953-1.229 1.245-1.143.572-2.509.302-3.953-.78l-1.2 1.6c1.497 1.123 2.826 1.472 3.901 1.472.248 0 .479-.021.699-.053v2.78h6v-2.781c.22.032.451.053.699.053 1.075 0 2.404-.349 3.901-1.472l-1.2-1.6c-1.442 1.082-2.809 1.353-3.953.78-.584-.292-.995-.773-1.229-1.245 1.049-.468 1.783-1.515 1.783-2.735 0-.875-.383-1.656-.983-2.205.168-2.919 3.812-4.507 6.316-4.756.424.901.667 1.902.667 2.961v4c0 .613.218 1.14.449 1.696.271.655.551 1.331.551 2.304 0 1.425-2.61 7-10 7s-10-5.575-10-7c0-.973.28-1.649.551-2.304zm.45 8.822c.011 2.871.123 11.966 1.104 13.93 1.26 2.52 3.78 2.553 3.882 2.553.463.011 1.013.193 1.013.999s-.55.988-1 1c-2.05-.002-6.47-.571-7.052-2.316-.985-2.958-1.948-6.066-1.948-8.684 0-1.455 1.407-5.815 4.001-7.482zm-19.859-5.528c6.622-.948 12.946 2.941 14.821 9.06-.64 1.544-.963 3.021-.963 3.95 0 1.042.133 2.132.347 3.243-.177.144-1.261 1.065-2.416 2.692-.249-.909-.565-2.451-.941-5.076-1.114-7.803-6.263-12.607-13.772-12.852-.124-.005-.248-.007-.371-.007-.205 0-.406.02-.61.031 1.057-.441 2.343-.818 3.905-1.041zm3.858 16.01c0-3.345-2.232-6.877-5.967-6.999-2.77-.113-5.886 1.776-6.032 4.953-.066 1.462.403 2.85 1.288 3.807.718.776 1.644 1.205 2.678 1.238l.065-1.998c-.495-.017-.923-.218-1.275-.598-.517-.56-.801-1.44-.759-2.357.09-1.96 2.133-3.086 3.968-3.047 2.526.083 4.034 2.607 4.034 5.001 0 1.71-.885 3.456-2.367 4.671-1.541 1.263-3.473 1.742-5.437 1.349-4.226-.846-7.383-4.874-7.188-9.172.164-3.598 2.099-6.68 4.878-8.396l.004.002c0-.001.003-.005.004-.006 1.545-.952 3.347-1.488 5.258-1.443 6.555.214 10.877 4.273 11.859 11.146.534 3.732 1.006 5.852 1.628 6.926-.657 1.313-1.204 2.885-1.467 4.687-5.015-1.679-5.172-8.898-5.172-9.764zm22 25h-9.764c-.503 0-.763-.332-.851-.475s-.269-.522-.043-.973l.967-1.934-.794-.477c-.046-.026-4.515-2.781-4.515-9.141 0-4.797 2.565-8.117 3.876-9.5.346 1.276.757 2.56 1.176 3.816.887 2.661 4.96 3.4 7.319 3.605.837 1.48 2.108 2.943 3.684 3.646.486 4.438-3.395 6.917-4.309 7.433h-1.746v2h8c.551 0 1 .448 1 1s-.449 1-1 1zm18 0h-12.184c.112-.314.184-.648.184-1 0-.973-.473-1.831-1.194-2.38 5.257-2.716 7.844-7.867 8.156-12.634.138-.055.273-.112.406-.172.225.191 2.196 1.929 2.531 4.325.78 5.585-3.278 7.532-4.087 7.861h-1.812v2h8c.551 0 1 .448 1 1s-.449 1-1 1z"/></svg>